<svg width="385" height="70" viewBox="0 0 385 70" fill="none" xmlns="http://www.w3.org/2000/svg">
  <path d="M371.564 11.1541C371.909 11.0061 372.131 10.9321 372.23 10.9321C372.378 10.9321 372.699 10.9815 373.192 11.0801C374.277 11.4255 375.042 11.9435 375.486 12.6341L376.004 13.4481V21.6621C376.004 24.9181 375.979 27.3355 375.93 28.9141C375.881 30.4928 375.733 31.8741 375.486 33.0581C375.239 34.1928 374.919 34.9821 374.524 35.4261C374.179 35.8208 373.611 36.2401 372.822 36.6841C372.082 37.0788 369.591 37.3008 365.348 37.3501C361.155 37.3995 358.589 37.2268 357.652 36.8321C355.925 36.1415 354.84 34.8341 354.396 32.9101C354.051 31.4795 353.829 28.0508 353.73 22.6241C353.631 17.1975 353.73 14.1388 354.026 13.4481C354.322 12.7081 354.815 12.1161 355.506 11.6721C356.197 11.1788 356.887 10.9815 357.578 11.0801C358.515 11.2281 359.231 11.5488 359.724 12.0421C360.267 12.5355 360.612 13.0781 360.76 13.6701C360.908 14.2621 361.007 15.3721 361.056 17.0001L361.13 19.7381H363.72C366.729 19.7381 368.407 19.6395 368.752 19.4421C368.9 19.3435 368.999 18.3321 369.048 16.4081C369.097 14.5828 369.27 13.3495 369.566 12.7081C369.862 12.0668 370.528 11.5488 371.564 11.1541ZM368.382 26.9901C368.234 26.9408 367.839 26.9161 367.198 26.9161C366.606 26.9161 366.285 26.9408 366.236 26.9901C366.187 27.0395 365.422 27.1135 363.942 27.2121C362.561 27.3108 361.722 27.4341 361.426 27.5821C361.179 27.7301 361.056 28.0755 361.056 28.6181C361.056 29.3581 361.204 29.7775 361.5 29.8761C361.796 29.9748 362.906 30.0241 364.83 30.0241C367.05 30.0241 368.209 29.9501 368.308 29.8021C368.505 29.7035 368.604 29.2348 368.604 28.3961C368.604 27.5575 368.53 27.0888 368.382 26.9901ZM359.946 43.1221C374.203 42.9248 381.727 43.0235 382.516 43.4181C383.305 43.8128 383.848 44.4048 384.144 45.1941C384.489 45.9341 384.539 46.7235 384.292 47.5621C383.996 48.6475 383.404 49.3875 382.516 49.7821C381.677 50.1275 380.099 50.3495 377.78 50.4481C376.448 50.4975 375.708 50.5468 375.56 50.5961C375.412 50.5961 375.313 50.9168 375.264 51.5581C375.264 52.1501 375.239 54.2961 375.19 57.9961C375.141 62.8308 375.017 65.5935 374.82 66.2841C374.376 67.6655 373.537 68.4795 372.304 68.7261C371.071 68.9728 369.936 68.5535 368.9 67.4681C368.357 66.8761 368.037 66.1115 367.938 65.1741C367.839 64.2368 367.815 61.6715 367.864 57.4781C367.913 56.9848 367.938 56.2695 367.938 55.3321C367.987 52.7175 367.913 51.2128 367.716 50.8181C367.519 50.3741 366.779 50.1521 365.496 50.1521C365.101 50.2015 364.781 50.2261 364.534 50.2261C361.969 50.2261 360.661 50.3988 360.612 50.7441C360.612 50.8921 360.612 52.3475 360.612 55.1101C360.661 60.8821 360.538 64.4095 360.242 65.6921C360.094 66.2348 359.798 66.8021 359.354 67.3941C358.91 67.9861 358.54 68.2821 358.244 68.2821C358.145 68.2821 357.948 68.3561 357.652 68.5041C357.011 68.8495 356.221 68.7508 355.284 68.2081C354.396 67.7148 353.804 66.9995 353.508 66.0621C353.311 65.5195 353.212 63.0281 353.212 58.5881C353.261 54.1481 353.237 51.7061 353.138 51.2621L353.064 50.6701H350.326C348.846 50.6701 347.884 50.6455 347.44 50.5961C347.045 50.4975 346.626 50.3001 346.182 50.0041C345.146 49.1655 344.727 48.0801 344.924 46.7481C345.171 45.4161 345.911 44.4788 347.144 43.9361C348.131 43.4921 352.398 43.2208 359.946 43.1221Z" fill="#EF233C"/>
  <path d="M333.596 17.2221C335.125 16.8275 336.309 17.1728 337.148 18.2581C338.036 19.2941 338.381 20.8481 338.184 22.9201C338.085 23.9068 338.011 29.8761 337.962 40.8281C337.912 50.4481 337.814 56.1708 337.666 57.9961C337.567 59.8215 337.148 61.0055 336.408 61.5481C335.569 62.1401 334.706 62.3868 333.818 62.2881C332.979 62.1895 332.239 61.7701 331.598 61.0301C331.055 60.3395 330.734 59.7475 330.636 59.2541C330.586 58.7608 330.586 57.2315 330.636 54.6661C330.734 51.3115 330.784 46.0081 330.784 38.7561C330.784 27.0641 330.956 20.7495 331.302 19.8121C331.746 18.3815 332.51 17.5181 333.596 17.2221ZM312.876 20.7001C316.329 20.3055 318.524 21.1195 319.462 23.1421C319.758 23.7341 319.881 25.9295 319.832 29.7281C319.832 33.4775 319.684 35.8455 319.388 36.8321C318.845 38.7068 317.636 39.9895 315.762 40.6801C315.268 40.8775 313.887 41.0748 311.618 41.2721C309.348 41.4695 307.548 41.5435 306.216 41.4941C305.081 41.4448 304.489 41.4695 304.44 41.5681C304.292 41.6668 304.242 42.9001 304.292 45.2681C304.341 47.6361 304.415 48.8695 304.514 48.9681C304.612 49.0175 305.944 49.0175 308.51 48.9681C311.075 48.9188 312.95 48.8448 314.134 48.7461C315.318 48.6475 316.329 48.5488 317.168 48.4501C319.338 48.2528 320.868 48.7215 321.756 49.8561C322.644 50.9415 322.619 52.2981 321.682 53.9261C320.892 55.2088 319.018 55.9488 316.058 56.1461C314.084 56.2448 310.952 56.2941 306.66 56.2941C302.417 56.2941 300.148 56.2201 299.852 56.0721C299.013 55.6281 298.347 55.0361 297.854 54.2961L297.336 53.4821V45.3421C297.336 41.2968 297.336 38.9288 297.336 38.2381C297.385 37.4981 297.533 36.9555 297.78 36.6101C298.668 35.1795 299.654 34.4641 300.74 34.4641C300.937 34.4641 301.233 34.4148 301.628 34.3161C301.924 34.2175 303.157 34.1188 305.328 34.0201C309.768 33.8228 312.16 33.5761 312.506 33.2801C312.604 33.1815 312.678 32.4908 312.728 31.2081C312.777 29.9255 312.752 29.0868 312.654 28.6921C312.506 28.1495 311.988 27.9521 311.1 28.1001C310.557 28.1495 309.521 28.2235 307.992 28.3221C306.364 28.3715 304.958 28.4948 303.774 28.6921C301.85 28.9881 300.616 29.0621 300.074 28.9141C298.742 28.4701 297.903 27.6561 297.558 26.4721C297.212 25.2388 297.508 24.0795 298.446 22.9941C298.643 22.6981 298.988 22.4268 299.482 22.1801C300.024 21.8841 300.444 21.7361 300.74 21.7361C300.937 21.7361 301.134 21.6868 301.332 21.5881C301.48 21.4895 302.294 21.3908 303.774 21.2921C305.698 21.1441 306.906 21.0455 307.4 20.9961C308.288 20.8975 309.25 20.8481 310.286 20.8481C311.371 20.8481 312.234 20.7988 312.876 20.7001Z" fill="#332941"/>
  <path d="M264.931 17.2962C265.277 17.1482 265.795 17.1235 266.485 17.2222C268.014 17.3208 269.001 18.1595 269.445 19.7382C269.889 21.2675 270.013 24.2768 269.815 28.7662C269.717 31.0355 269.643 34.1435 269.593 38.0902C269.544 47.9568 269.445 54.0495 269.297 56.3682C269.149 58.6868 268.73 60.1668 268.039 60.8082C267.151 61.6468 266.189 61.9675 265.153 61.7702C264.167 61.5728 263.278 60.8822 262.489 59.6982C262.292 59.4022 262.169 59.0322 262.119 58.5882C262.119 58.1442 262.144 56.7875 262.193 54.5182C262.193 52.0022 262.218 47.5375 262.267 41.1242C262.316 27.9028 262.514 20.7248 262.859 19.5902C263.007 19.0968 263.303 18.6282 263.747 18.1842C264.191 17.6908 264.586 17.3948 264.931 17.2962ZM235.109 22.4762C235.454 22.2788 235.997 22.1802 236.737 22.1802C238.267 22.1802 239.253 22.8955 239.697 24.3262C240.141 25.7075 240.215 28.4208 239.919 32.4662C239.771 34.9822 239.648 36.8075 239.549 37.9422C239.45 39.9648 239.426 41.2228 239.475 41.7162C239.524 42.2095 239.722 42.5055 240.067 42.6042C240.462 42.7028 242.879 42.7522 247.319 42.7522C250.674 42.7522 252.647 42.7768 253.239 42.8262C253.881 42.8755 254.399 42.9988 254.793 43.1962C256.322 43.9362 257.038 45.0462 256.939 46.5262C256.84 47.9568 255.977 49.0422 254.349 49.7822C254.004 49.9795 251.241 50.1028 246.061 50.1522C240.931 50.2015 237.724 50.1275 236.441 49.9302C234.32 49.6342 232.963 48.6722 232.371 47.0442C232.223 46.6002 232.149 45.5148 232.149 43.7882C232.149 42.0615 232.248 40.8035 232.445 40.0142C232.544 39.4715 232.618 37.2515 232.667 33.3542C232.716 30.1968 232.79 28.0015 232.889 26.7682C232.988 25.4855 233.185 24.5482 233.481 23.9562C233.777 23.3642 234.32 22.8708 235.109 22.4762Z" fill="#332941"/>
  <path d="M221 18.0361C221.74 17.7895 222.504 17.8388 223.294 18.1841C224.083 18.5295 224.675 19.0968 225.07 19.8861C225.316 20.3301 225.439 22.0815 225.439 25.1401C225.489 28.1495 225.464 34.6121 225.366 44.5281C225.267 50.7935 225.168 54.7401 225.07 56.3681C224.971 57.9961 224.798 59.0321 224.551 59.4761C223.713 60.8081 222.578 61.4495 221.148 61.4001C219.766 61.3508 218.78 60.6108 218.188 59.1801C217.99 58.7855 217.941 55.9735 218.04 50.7441C218.089 45.4655 218.04 42.7521 217.892 42.6041C217.842 42.5055 216.708 42.4315 214.488 42.3821C212.268 42.2835 211.084 42.3081 210.936 42.4561C210.886 42.5055 210.837 44.6021 210.788 48.7461C210.788 52.9395 210.689 55.2581 210.492 55.7021C210.048 56.6395 209.554 57.1821 209.012 57.3301C208.814 57.4288 208.617 57.5275 208.42 57.6261C208.272 57.7248 207.926 57.7741 207.383 57.7741C206.495 57.7741 205.731 57.4781 205.09 56.8861C204.448 56.2448 204.004 55.4061 203.758 54.3701C203.659 53.8275 203.585 51.1388 203.536 46.3041C203.486 41.4201 203.536 38.4848 203.684 37.4981C203.782 36.5115 203.856 33.9215 203.906 29.7281C203.955 26.5215 204.004 24.4988 204.053 23.6601C204.152 22.8215 204.35 22.2295 204.646 21.8841C204.744 21.7361 204.794 21.6128 204.794 21.5141C204.794 21.3661 204.942 21.1935 205.238 20.9961C206.274 20.0588 207.408 19.7628 208.642 20.1081C209.875 20.4041 210.689 21.2181 211.083 22.5501C211.231 23.0928 211.306 25.2388 211.306 28.9881C211.306 29.2841 211.306 29.7281 211.306 30.3201C211.306 32.6388 211.355 33.9955 211.454 34.3901C211.552 34.7355 211.922 34.9081 212.564 34.9081C212.712 34.9081 212.81 34.9081 212.859 34.9081C214.635 34.9081 216.066 35.0068 217.152 35.2041C217.596 35.3028 217.867 35.1795 217.965 34.8341C218.064 34.3901 218.114 32.2935 218.114 28.5441C218.114 25.4361 218.163 23.2655 218.262 22.0321C218.41 20.7495 218.656 19.8368 219.002 19.2941C219.396 18.7515 220.062 18.3321 221 18.0361ZM185.85 25.1401C186.195 24.9428 186.959 24.8688 188.143 24.9181C189.377 24.9181 190.24 25.0168 190.734 25.2141C194.779 26.7435 197.369 28.9388 198.503 31.8001C199.095 33.1815 199.416 35.1055 199.465 37.5721C199.515 39.9895 199.293 41.6915 198.799 42.6781C198.651 42.9248 198.578 43.1468 198.578 43.3441C198.578 43.4921 198.528 43.6895 198.43 43.9361C198.331 44.1335 198.158 44.4541 197.912 44.8981C197.418 46.0328 196.9 46.9208 196.358 47.5621C195.075 49.1408 193.817 50.2015 192.584 50.7441C192.09 50.9908 191.77 51.1388 191.622 51.1881C191.178 51.4348 190.29 51.5581 188.958 51.5581C187.675 51.5581 186.614 51.4348 185.776 51.1881C181.484 49.8068 178.696 46.6001 177.414 41.5681C177.266 40.9761 177.167 39.8168 177.117 38.0901C177.068 36.3141 177.118 35.3275 177.266 35.1301C177.414 35.0315 177.512 34.8095 177.561 34.4641C177.709 33.5268 178.178 32.4908 178.967 31.3561C179.115 31.0601 179.263 30.7888 179.411 30.5421C179.757 29.6541 180.571 28.6428 181.853 27.5081C183.185 26.3241 184.271 25.6088 185.11 25.3621C185.406 25.3128 185.652 25.2388 185.85 25.1401ZM190.29 33.0581C189.056 32.6635 187.823 32.8115 186.589 33.5021C185.405 34.1928 184.715 35.1548 184.517 36.3881C184.468 36.7335 184.394 36.9308 184.295 36.9801C183.999 37.1775 183.95 37.9668 184.147 39.3481C184.345 40.6801 184.641 41.6668 185.035 42.3081C185.677 43.2455 186.54 43.8128 187.626 44.0101C188.711 44.2075 189.599 43.9608 190.29 43.2701C191.622 42.0368 192.362 40.0635 192.51 37.3501C192.608 35.0315 191.868 33.6008 190.29 33.0581Z" fill="#EE9B00"/>
  <path d="M133.629 11.1541C134.369 11.0555 136.589 11.0308 140.289 11.0801C143.989 11.0801 146.061 11.1295 146.505 11.2281C148.183 11.6228 149.145 12.5848 149.391 14.1141C149.638 15.6435 149.046 16.8768 147.615 17.8141L146.875 18.3321L139.845 18.2581C135.159 18.2581 132.692 18.3075 132.445 18.4061C132.248 18.4555 132.125 18.6035 132.075 18.8501C132.026 19.0475 132.026 19.7381 132.075 20.9221C132.125 22.5008 132.174 23.3395 132.223 23.4381C132.273 23.4875 134.764 23.5615 139.697 23.6601C145.519 23.7095 148.553 23.9068 148.799 24.2521C148.898 24.4001 149.021 24.4741 149.169 24.4741C149.465 24.4741 149.885 24.9181 150.427 25.8061C151.069 26.8421 151.044 27.9521 150.353 29.1361C149.663 30.2708 148.651 30.8875 147.319 30.9861C146.875 31.0355 144.631 31.0355 140.585 30.9861C136.589 30.8875 133.506 30.7888 131.335 30.6901C129.362 30.6408 127.981 30.4681 127.191 30.1721C126.451 29.8268 125.859 29.2101 125.415 28.3221C125.07 27.5328 124.823 25.2881 124.675 21.5882C124.577 17.8881 124.675 15.6435 124.971 14.8541C125.267 14.0648 125.761 13.3495 126.451 12.7081C127.142 12.0668 127.734 11.7461 128.227 11.7461C128.375 11.7461 128.647 11.6721 129.041 11.5241C129.485 11.3761 130.225 11.3021 131.261 11.3021C132.297 11.3021 133.087 11.2528 133.629 11.1541ZM135.997 35.2041C137.132 35.0561 140.289 35.0068 145.469 35.0561C150.699 35.0561 153.486 35.1301 153.831 35.2781C155.114 35.6728 155.928 36.5115 156.273 37.7941C156.619 39.0275 156.347 40.1375 155.459 41.1241C155.41 41.1241 155.361 41.1735 155.311 41.2721C154.818 41.7655 154.152 42.0615 153.313 42.1601C152.475 42.2588 149.737 42.3081 145.099 42.3081C144.507 42.3081 144.063 42.3081 143.767 42.3081C137.206 42.3575 132.47 42.4561 129.559 42.6041C123.541 42.9001 120.161 42.8755 119.421 42.5301C118.089 41.9381 117.423 40.9021 117.423 39.4221C117.423 37.9421 118.114 36.8568 119.495 36.1661C120.334 35.7221 123.664 35.4508 129.485 35.3521C133.136 35.3028 135.307 35.2535 135.997 35.2041ZM129.559 46.3041C134.394 46.1068 138.809 46.1068 142.805 46.3041C146.801 46.4521 149.12 46.7235 149.761 47.1181C150.649 47.6608 151.192 48.3021 151.389 49.0421C151.587 49.7821 151.685 51.3608 151.685 53.7781C151.685 57.5275 151.587 60.2902 151.389 62.0662C151.192 63.8915 150.822 65.2235 150.279 66.0621C149.786 66.9008 148.997 67.5175 147.911 67.9121C147.221 68.1095 143.545 68.2328 136.885 68.2822C130.225 68.3315 126.649 68.2575 126.155 68.0602C125.366 67.7148 124.823 67.4188 124.527 67.1721C124.231 66.9255 123.935 66.5061 123.639 65.9141C123.294 65.2235 123.072 62.2142 122.973 56.8862C122.875 53.5808 122.85 51.5335 122.899 50.7441C122.949 49.9548 123.072 49.3381 123.269 48.8941C123.713 47.9568 124.379 47.3155 125.267 46.9701C126.155 46.6248 127.586 46.4028 129.559 46.3041ZM143.915 53.4081C143.718 53.3588 141.498 53.3341 137.255 53.3341C133.013 53.2848 130.817 53.2848 130.669 53.3341C130.423 53.4328 130.299 53.5561 130.299 53.7041C130.201 53.9015 130.176 55.1595 130.225 57.4781C130.324 59.7968 130.423 60.9808 130.521 61.0301C130.62 61.1288 132.865 61.1535 137.255 61.1041C141.646 61.0548 143.915 60.9808 144.063 60.8821C144.162 60.7835 144.261 59.6735 144.359 57.5522C144.409 55.8748 144.409 54.7895 144.359 54.2962C144.31 53.8028 144.162 53.5068 143.915 53.4081Z" fill="#332941"/>
  <path d="M90.9872 16.7041C92.9112 16.6055 93.8979 16.5315 93.9472 16.4821C93.9966 16.4328 95.5506 16.4081 98.6092 16.4081C102.211 16.4081 104.554 16.5808 105.639 16.9261C106.774 17.2221 107.687 17.9621 108.377 19.1461C108.673 19.7381 108.821 21.7115 108.821 25.0661C108.871 28.4208 108.723 31.9728 108.377 35.7221C108.279 37.4981 107.81 38.8055 106.971 39.6441C106.182 40.4335 104.924 40.9515 103.197 41.1981C102.013 41.2968 101.273 41.3955 100.977 41.4941C100.78 41.5435 100.657 41.7408 100.607 42.0861C100.607 42.4315 100.607 43.6401 100.607 45.7121C100.607 48.2775 100.583 50.5468 100.533 52.5201C100.484 54.2961 100.509 55.2581 100.607 55.4061C100.706 55.5541 101.52 55.6528 103.049 55.7021C104.628 55.7515 106.207 55.7268 107.785 55.6281C111.239 55.4308 113.335 55.3815 114.075 55.4801C114.815 55.5295 115.506 55.8255 116.147 56.3681C117.923 58.0455 117.923 59.7721 116.147 61.5481C115.555 62.1401 114.791 62.4855 113.853 62.5841C112.916 62.7321 109.857 62.8308 104.677 62.8801C98.6586 63.0281 95.6246 63.1021 95.5752 63.1021C95.3779 63.2501 92.6152 63.2995 87.2872 63.2501C81.9592 63.2008 79.1472 63.1268 78.8512 63.0281C77.6179 62.4855 76.8532 61.5975 76.5572 60.3641C76.2612 59.0815 76.5819 58.0208 77.5192 57.1821C78.1112 56.6395 78.7279 56.2941 79.3692 56.1461C80.0599 55.9981 81.4906 55.9488 83.6612 55.9981C89.1866 56.0475 92.2206 55.8995 92.7632 55.5541C92.9606 55.4555 93.0592 55.1841 93.0592 54.7401C93.1086 54.2468 93.1086 52.6188 93.0592 49.8561C93.0592 46.1561 93.0839 43.8128 93.1332 42.8261C93.2319 41.9381 93.2072 41.4201 93.0592 41.2721C92.9606 41.0748 92.5906 40.9761 91.9492 40.9761C87.6079 40.9761 85.1166 39.1261 84.4752 35.4261C84.2779 34.4888 84.1792 31.9728 84.1792 27.8781C84.1792 23.7341 84.2532 21.3661 84.4012 20.7741C84.8452 19.1955 85.4866 18.1595 86.3252 17.6661C87.1639 17.1235 88.7179 16.8028 90.9872 16.7041ZM101.347 24.0301C101.101 23.7341 99.5219 23.6108 96.6112 23.6601C93.7006 23.6601 92.0972 23.8081 91.8012 24.1041C91.7026 24.2028 91.6039 25.3621 91.5052 27.5821C91.4559 29.8021 91.4806 31.3561 91.5792 32.2441C91.6286 32.7868 91.8506 33.1075 92.2452 33.2061C92.6399 33.3048 93.9719 33.4035 96.2412 33.5021C98.5599 33.6008 99.9166 33.6255 100.311 33.5761C100.706 33.5268 100.977 33.3541 101.125 33.0581C101.273 32.7128 101.372 31.1588 101.421 28.3961C101.471 25.6335 101.446 24.1781 101.347 24.0301Z" fill="#EE9B00"/>
  <path d="M10.5283 0.291041C10.2397 0.483446 9.99237 0.799537 9.88245 1.14312C9.69008 1.69285 9.70382 1.73408 11.7099 7.19013C12.8229 10.2136 13.771 12.7974 13.7985 12.921C13.8397 13.0722 13.6336 13.4295 13.2352 13.8831C12.8779 14.2679 12.4245 14.8588 12.2321 15.1887C12.0397 15.5323 11.8336 15.7521 11.7786 15.6834C11.7237 15.6285 10.171 13.1959 8.3435 10.2823C6.516 7.36879 4.79842 4.78507 4.53735 4.52395C4.09765 4.11165 4.00147 4.07042 3.42436 4.13914C2.5587 4.23534 2.02282 4.81256 2.02282 5.65089C2.02282 6.18688 2.39382 6.83281 6.0763 12.6462C8.30228 16.1782 10.1298 19.0917 10.1298 19.1192C10.1298 19.1467 9.78626 19.2429 9.37404 19.3391C6.70837 19.9438 4.33124 22.2664 3.60299 24.9876C3.34192 25.9771 3.34192 27.8462 3.61673 28.9319L3.83658 29.7977L3.3007 30.4574C1.45945 32.67 0.511353 35.0476 0.511353 37.384C0.511353 39.8302 1.55564 44.7091 2.70985 47.5814C4.64727 52.4877 8.21983 57.1879 12.3145 60.2389C13.5649 61.1734 13.5649 61.1734 13.5649 61.7919C13.5649 63.125 14.3069 64.4168 15.7909 65.6675C21.562 70.5188 32.843 71.4396 40.3729 67.6602C42.1042 66.7807 43.1485 66.066 44.1378 65.049C45.1408 64.032 45.608 63.125 45.7042 61.998L45.7866 61.146L46.9134 60.3076C51.118 57.1879 54.7455 52.364 56.6967 47.3203C58.2906 43.1836 59.1425 37.6588 58.5654 35.185C58.1807 33.5633 57.1639 31.6668 55.9822 30.3749L55.4326 29.7977L55.6661 29.0006C55.7898 28.5333 55.886 27.695 55.886 26.9941C55.886 24.7265 55.2127 23.0635 53.6188 21.4693C52.2447 20.0813 50.9943 19.4903 48.7134 19.1467C48.2325 19.078 48.205 19.0368 48.1226 18.4183C47.6829 15.065 45.4157 12.4125 42.2828 11.588C40.6751 11.1619 38.4079 11.3818 36.9927 12.0965L36.4568 12.3851L36.2507 12.0552C35.7697 11.2719 34.0797 9.77385 33.214 9.34781C30.0537 7.80857 26.6048 8.34456 24.2002 10.7496C23.6643 11.2856 23.1421 11.8766 23.0185 12.069C22.8261 12.3851 22.7986 12.3988 22.4688 12.1789C22.2902 12.0552 21.7131 11.8216 21.2047 11.6704C20.1742 11.3543 18.1268 11.2719 17.2886 11.5192C17.0276 11.588 16.7802 11.6292 16.7527 11.6017C16.7253 11.5605 15.7909 9.07295 14.6917 6.07693C12.7955 0.936971 12.6443 0.579649 12.2046 0.291041C11.6138 -0.107511 11.1191 -0.107511 10.5283 0.291041ZM31.1117 11.8766C32.5819 12.3713 33.4751 13.3059 34.1209 14.9825C34.3957 15.6972 34.5881 16.0133 34.9178 16.2057C35.6736 16.6592 36.4705 16.4943 37.1988 15.7109C38.1469 14.6802 40.4141 14.2129 41.8431 14.7489C43.3958 15.3399 44.4263 16.4805 44.8385 18.1022C45.0309 18.8581 45.0309 19.1192 44.8798 20.04C44.7011 21.1945 44.7698 21.703 45.1683 22.1015C45.5668 22.5001 46.0752 22.5825 47.1607 22.3901C49.3455 22.0328 51.3928 23.0223 52.3272 24.9189C52.602 25.4961 52.657 25.7984 52.657 26.9116C52.657 28.0523 52.602 28.3272 52.2585 29.0968C51.7363 30.2787 51.805 30.5398 53.0692 31.8867C54.8829 33.8107 55.6112 35.3912 55.6112 37.384C55.6112 39.2805 54.8005 40.9297 52.9318 42.785C51.5714 44.1594 50.0325 45.1901 47.6416 46.3445C36.814 51.5669 19.5971 51.1134 9.81374 45.3413C7.12058 43.7471 5.2656 41.878 4.08391 39.5554C3.38314 38.1811 3.67169 35.7485 4.74346 33.9069C5.03201 33.4397 5.73278 32.5463 6.32363 31.9142C7.56028 30.5811 7.62899 30.265 7.01066 29.0693C6.66714 28.4234 6.62592 28.2172 6.62592 26.9803C6.62592 25.7435 6.66714 25.5373 7.01066 24.8776C7.91754 23.1597 9.92367 22.0465 11.655 22.3214C12.2733 22.4313 12.3558 22.5001 13.2901 24.0256C13.6886 24.6715 14.1695 25.3586 14.3619 25.5648C15.5573 26.8567 17.6184 25.3449 16.8077 23.7782C16.6978 23.572 16.0932 22.5963 15.4749 21.6205C14.3894 19.9301 14.3344 19.7927 14.3344 19.078C14.3481 18.2534 14.7054 16.989 14.994 16.7417C15.1451 16.6317 15.2138 16.6729 15.3237 16.9753C16.5604 20.4386 17.6184 23.201 17.7696 23.4483C17.8932 23.627 18.2093 23.8606 18.4841 23.9843C19.4734 24.3966 20.5726 23.6682 20.5726 22.5825C20.5726 22.3489 19.9543 20.4661 19.1986 18.4046C18.4428 16.3569 17.8245 14.6252 17.8245 14.584C17.8245 14.5427 18.4016 14.5427 19.1024 14.5702C20.5314 14.6389 21.1772 14.8863 22.2078 15.8071C22.8948 16.4118 23.2521 16.5355 23.9253 16.4118C24.4337 16.3156 25.107 15.6559 25.107 15.2574C25.1208 14.8863 25.6154 13.8831 26.0826 13.2921C26.5223 12.7286 27.388 12.1514 28.2399 11.8491C28.9407 11.6017 30.3285 11.6154 31.1117 11.8766ZM6.72211 47.1691C10.858 50.0277 16.3543 51.8968 23.3895 52.8313C25.5742 53.1199 31.1941 53.2299 33.6949 53.0375C41.1561 52.4465 47.9714 50.3575 52.3821 47.334C52.9867 46.9217 53.4951 46.6056 53.5226 46.6194C53.6051 46.7156 52.4508 49.0657 51.7638 50.2064C49.1119 54.5904 45.292 58.1362 40.84 60.3076C36.869 62.2592 33.1865 63.0425 28.7483 62.8776C25.5467 62.7539 23.0322 62.2317 20.1604 61.0772C16.9314 59.7854 14.3344 58.0537 11.6962 55.4288C9.88245 53.6147 8.8519 52.3503 7.79387 50.6187C6.90073 49.1756 5.62286 46.5644 5.80149 46.5644C5.82897 46.5644 6.24119 46.8393 6.72211 47.1691ZM20.7513 64.7054C22.2765 65.2139 24.6399 65.7362 26.3849 65.9561C28.5147 66.2172 32.8705 66.0385 35.0003 65.6262C36.4568 65.3376 38.5453 64.7604 39.6034 64.3619C39.7545 64.3069 39.6996 64.3893 39.466 64.5543C38.8476 64.9941 36.4705 65.8736 35.069 66.1897C33.2003 66.6157 31.7163 66.7807 29.7239 66.7807C27.4842 66.7807 25.7528 66.5745 23.8017 66.0798C22.3727 65.7224 19.8719 64.7467 19.5558 64.4306C19.3635 64.2382 19.3909 64.2382 20.7513 64.7054Z" fill="#332941"/>
  <path d="M31.1117 11.8766C32.5819 12.3713 33.4751 13.3059 34.1209 14.9825C34.3957 15.6972 34.5881 16.0133 34.9178 16.2057C35.6736 16.6592 36.4705 16.4943 37.1988 15.7109C38.1469 14.6802 40.4141 14.2129 41.8431 14.7489C43.3958 15.3399 44.4263 16.4805 44.8385 18.1022C45.0309 18.8581 45.0309 19.1192 44.8798 20.04C44.7011 21.1945 44.7698 21.703 45.1683 22.1015C45.5668 22.5001 46.0752 22.5825 47.1607 22.3901C49.3455 22.0328 51.3928 23.0223 52.3272 24.9189C52.602 25.4961 52.657 25.7984 52.657 26.9116C52.657 28.0523 52.602 28.3272 52.2585 29.0968C51.7363 30.2787 51.805 30.5398 53.0692 31.8867C54.8829 33.8107 55.6112 35.3912 55.6112 37.384C55.6112 39.2805 54.8005 40.9297 52.9318 42.785C51.5714 44.1594 50.0325 45.1901 47.6416 46.3445C36.814 51.5669 19.5971 51.1134 9.81374 45.3413C7.12058 43.7471 5.2656 41.878 4.08391 39.5554C3.38314 38.1811 3.67169 35.7485 4.74346 33.9069C5.03201 33.4397 5.73278 32.5463 6.32363 31.9142C7.56028 30.5811 7.62899 30.265 7.01066 29.0693C6.66714 28.4234 6.62592 28.2172 6.62592 26.9803C6.62592 25.7435 6.66714 25.5373 7.01066 24.8776C7.91754 23.1597 9.92367 22.0465 11.655 22.3214C12.2733 22.4313 12.3558 22.5001 13.2901 24.0256C13.6886 24.6715 14.1695 25.3586 14.3619 25.5648C15.5573 26.8567 17.6184 25.3449 16.8077 23.7782C16.6978 23.572 16.0932 22.5963 15.4749 21.6205C14.3894 19.9301 14.3344 19.7927 14.3344 19.078C14.3481 18.2534 14.7054 16.989 14.994 16.7417C15.1451 16.6317 15.2138 16.6729 15.3237 16.9753C16.5604 20.4386 17.6184 23.201 17.7696 23.4483C17.8932 23.627 18.2093 23.8606 18.4841 23.9843C19.4734 24.3966 20.5726 23.6682 20.5726 22.5825C20.5726 22.3489 19.9543 20.4661 19.1986 18.4046C18.4428 16.3569 17.8245 14.6252 17.8245 14.584C17.8245 14.5427 18.4016 14.5427 19.1024 14.5702C20.5314 14.6389 21.1772 14.8863 22.2078 15.8071C22.8948 16.4118 23.2521 16.5355 23.9253 16.4118C24.4337 16.3156 25.107 15.6559 25.107 15.2574C25.1208 14.8863 25.6154 13.8831 26.0826 13.2921C26.5223 12.7286 27.388 12.1514 28.2399 11.8491C28.9407 11.6017 30.3285 11.6154 31.1117 11.8766Z" fill="#EEF5FF"/>
  <path d="M6.72211 47.1691C10.858 50.0277 16.3543 51.8968 23.3895 52.8313C25.5742 53.1199 31.1941 53.2299 33.6949 53.0375C41.1561 52.4465 47.9714 50.3575 52.3821 47.334C52.9867 46.9217 53.4951 46.6056 53.5226 46.6194C53.6051 46.7156 52.4508 49.0657 51.7638 50.2064C49.1119 54.5904 45.292 58.1362 40.84 60.3076C36.869 62.2592 33.1865 63.0425 28.7483 62.8776C25.5467 62.7539 23.0322 62.2317 20.1604 61.0772C16.9314 59.7854 14.3344 58.0537 11.6962 55.4288C9.88245 53.6147 8.8519 52.3503 7.79387 50.6187C6.90073 49.1756 5.62286 46.5644 5.80149 46.5644C5.82897 46.5644 6.24119 46.8393 6.72211 47.1691Z" fill="#EEF5FF"/>
  <path d="M19.3634 35.6523C18.484 36.257 18.7039 37.0953 20.0642 38.4147C21.8092 40.0914 23.8978 41.287 26.2062 41.9192C27.1956 42.1803 27.704 42.2353 29.6414 42.2353C31.5788 42.2353 32.0735 42.1941 33.0765 41.9192C35.4537 41.2733 37.817 39.8715 39.6033 38.0574C40.3316 37.3015 40.4278 37.1503 40.4278 36.6555C40.4278 35.9409 39.9056 35.4324 39.1911 35.4324C38.7926 35.4324 38.559 35.5836 37.6934 36.4494C33.8872 40.2013 28.4047 40.9022 23.8291 38.2085C23.3894 37.9474 22.4688 37.219 21.7955 36.5868C20.7787 35.6111 20.5176 35.4324 20.1329 35.4324C19.8718 35.4324 19.5283 35.5286 19.3634 35.6523Z" fill="#EF233C"/>
  <path d="M15.8545 30.399C15.1953 31.0668 15.0488 31.8274 15.4334 32.6065C16.0377 33.7937 17.5576 34.0349 18.5647 33.1259C19.0775 32.6621 19.169 32.4581 19.169 31.7161C19.169 30.9741 19.0775 30.77 18.5647 30.3063C17.7041 29.5086 16.6969 29.5457 15.8545 30.399Z" fill="#EE9B00"/>
  <path d="M40.7299 30.399C40.0707 31.0668 39.9242 31.8274 40.3087 32.6065C40.913 33.7937 42.4329 34.0349 43.4401 33.1259C43.9528 32.6621 44.0444 32.4581 44.0444 31.7161C44.0444 30.9741 43.9528 30.77 43.4401 30.3063C42.5794 29.5086 41.5723 29.5457 40.7299 30.399Z" fill="#EE9B00"/>
</svg>
