<svg width="210" height="71" viewBox="0 0 210 71" fill="none" xmlns="http://www.w3.org/2000/svg">
  <path d="M196.564 11.372C196.909 11.224 197.131 11.15 197.23 11.15C197.378 11.15 197.699 11.1994 198.192 11.298C199.277 11.6434 200.042 12.1614 200.486 12.852L201.004 13.666V21.88C201.004 25.136 200.979 27.5534 200.93 29.132C200.881 30.7107 200.733 32.092 200.486 33.276C200.239 34.4107 199.919 35.2 199.524 35.644C199.179 36.0387 198.611 36.458 197.822 36.902C197.082 37.2967 194.591 37.5187 190.348 37.568C186.155 37.6174 183.589 37.4447 182.652 37.05C180.925 36.3594 179.84 35.052 179.396 33.128C179.051 31.6974 178.829 28.2687 178.73 22.842C178.631 17.4154 178.73 14.3567 179.026 13.666C179.322 12.926 179.815 12.334 180.506 11.89C181.197 11.3967 181.887 11.1994 182.578 11.298C183.515 11.446 184.231 11.7667 184.724 12.26C185.267 12.7534 185.612 13.296 185.76 13.888C185.908 14.48 186.007 15.59 186.056 17.218L186.13 19.956H188.72C191.729 19.956 193.407 19.8574 193.752 19.66C193.9 19.5614 193.999 18.55 194.048 16.626C194.097 14.8007 194.27 13.5674 194.566 12.926C194.862 12.2847 195.528 11.7667 196.564 11.372ZM193.382 27.208C193.234 27.1587 192.839 27.134 192.198 27.134C191.606 27.134 191.285 27.1587 191.236 27.208C191.187 27.2574 190.422 27.3314 188.942 27.43C187.561 27.5287 186.722 27.652 186.426 27.8C186.179 27.948 186.056 28.2934 186.056 28.836C186.056 29.576 186.204 29.9954 186.5 30.094C186.796 30.1927 187.906 30.242 189.83 30.242C192.05 30.242 193.209 30.168 193.308 30.02C193.505 29.9214 193.604 29.4527 193.604 28.614C193.604 27.7754 193.53 27.3067 193.382 27.208ZM184.946 43.34C199.203 43.1427 206.727 43.2414 207.516 43.636C208.305 44.0307 208.848 44.6227 209.144 45.412C209.489 46.152 209.539 46.9414 209.292 47.78C208.996 48.8654 208.404 49.6054 207.516 50C206.677 50.3454 205.099 50.5674 202.78 50.666C201.448 50.7154 200.708 50.7647 200.56 50.814C200.412 50.814 200.313 51.1347 200.264 51.776C200.264 52.368 200.239 54.514 200.19 58.214C200.141 63.0487 200.017 65.8114 199.82 66.502C199.376 67.8834 198.537 68.6974 197.304 68.944C196.071 69.1907 194.936 68.7714 193.9 67.686C193.357 67.094 193.037 66.3294 192.938 65.392C192.839 64.4547 192.815 61.8894 192.864 57.696C192.913 57.2027 192.938 56.4874 192.938 55.55C192.987 52.9354 192.913 51.4307 192.716 51.036C192.519 50.592 191.779 50.37 190.496 50.37C190.101 50.4194 189.781 50.444 189.534 50.444C186.969 50.444 185.661 50.6167 185.612 50.962C185.612 51.11 185.612 52.5654 185.612 55.328C185.661 61.1 185.538 64.6274 185.242 65.91C185.094 66.4527 184.798 67.02 184.354 67.612C183.91 68.204 183.54 68.5 183.244 68.5C183.145 68.5 182.948 68.574 182.652 68.722C182.011 69.0674 181.221 68.9687 180.284 68.426C179.396 67.9327 178.804 67.2174 178.508 66.28C178.311 65.7374 178.212 63.246 178.212 58.806C178.261 54.366 178.237 51.924 178.138 51.48L178.064 50.888H175.326C173.846 50.888 172.884 50.8634 172.44 50.814C172.045 50.7154 171.626 50.518 171.182 50.222C170.146 49.3834 169.727 48.298 169.924 46.966C170.171 45.634 170.911 44.6967 172.144 44.154C173.131 43.71 177.398 43.4387 184.946 43.34Z" fill="#EF233C"/>
  <path d="M161 18.2539C161.74 18.0072 162.504 18.0566 163.294 18.4019C164.083 18.7472 164.675 19.3146 165.07 20.1039C165.316 20.5479 165.439 22.2992 165.439 25.3579C165.489 28.3672 165.464 34.8299 165.366 44.7459C165.267 51.0112 165.168 54.9579 165.07 56.5859C164.971 58.2139 164.798 59.2499 164.551 59.6939C163.713 61.0259 162.578 61.6672 161.148 61.6179C159.766 61.5686 158.78 60.8286 158.188 59.3979C157.99 59.0032 157.941 56.1912 158.04 50.9619C158.089 45.6832 158.04 42.9699 157.892 42.8219C157.842 42.7232 156.708 42.6492 154.488 42.5999C152.268 42.5012 151.084 42.5259 150.936 42.6739C150.886 42.7232 150.837 44.8199 150.788 48.9639C150.788 53.1572 150.689 55.4759 150.492 55.9199C150.048 56.8572 149.554 57.3999 149.012 57.5479C148.814 57.6466 148.617 57.7452 148.42 57.8439C148.272 57.9426 147.926 57.9919 147.383 57.9919C146.495 57.9919 145.731 57.6959 145.09 57.1039C144.448 56.4626 144.004 55.6239 143.758 54.5879C143.659 54.0452 143.585 51.3566 143.536 46.5219C143.486 41.6379 143.536 38.7026 143.684 37.7159C143.782 36.7292 143.856 34.1392 143.906 29.9459C143.955 26.7392 144.004 24.7166 144.053 23.8779C144.152 23.0392 144.35 22.4472 144.646 22.1019C144.744 21.9539 144.794 21.8306 144.794 21.7319C144.794 21.5839 144.942 21.4112 145.238 21.2139C146.274 20.2766 147.408 19.9806 148.642 20.3259C149.875 20.6219 150.689 21.4359 151.083 22.7679C151.231 23.3106 151.306 25.4566 151.306 29.2059C151.306 29.5019 151.306 29.9459 151.306 30.5379C151.306 32.8566 151.355 34.2132 151.454 34.6079C151.552 34.9532 151.922 35.1259 152.564 35.1259C152.712 35.1259 152.81 35.1259 152.859 35.1259C154.635 35.1259 156.066 35.2246 157.152 35.4219C157.596 35.5206 157.867 35.3972 157.965 35.0519C158.064 34.6079 158.114 32.5112 158.114 28.7619C158.114 25.6539 158.163 23.4832 158.262 22.2499C158.41 20.9672 158.656 20.0546 159.002 19.5119C159.396 18.9692 160.062 18.5499 161 18.2539ZM125.85 25.3579C126.195 25.1606 126.959 25.0866 128.143 25.1359C129.377 25.1359 130.24 25.2346 130.734 25.4319C134.779 26.9612 137.369 29.1566 138.503 32.0179C139.095 33.3992 139.416 35.3232 139.465 37.7899C139.515 40.2072 139.293 41.9092 138.799 42.8959C138.651 43.1426 138.578 43.3646 138.578 43.5619C138.578 43.7099 138.528 43.9072 138.43 44.1539C138.331 44.3512 138.158 44.6719 137.912 45.1159C137.418 46.2506 136.9 47.1386 136.358 47.7799C135.075 49.3586 133.817 50.4192 132.584 50.9619C132.09 51.2086 131.77 51.3566 131.622 51.4059C131.178 51.6526 130.29 51.7759 128.958 51.7759C127.675 51.7759 126.614 51.6526 125.776 51.4059C121.484 50.0246 118.696 46.8179 117.414 41.7859C117.266 41.1939 117.167 40.0346 117.117 38.3079C117.068 36.5319 117.118 35.5452 117.266 35.3479C117.414 35.2492 117.512 35.0272 117.561 34.6819C117.709 33.7446 118.178 32.7086 118.967 31.5739C119.115 31.2779 119.263 31.0066 119.411 30.7599C119.757 29.8719 120.571 28.8606 121.853 27.7259C123.185 26.5419 124.271 25.8266 125.11 25.5799C125.406 25.5306 125.652 25.4566 125.85 25.3579ZM130.29 33.2759C129.056 32.8812 127.823 33.0292 126.589 33.7199C125.405 34.4106 124.715 35.3726 124.517 36.6059C124.468 36.9512 124.394 37.1486 124.295 37.1979C123.999 37.3952 123.95 38.1846 124.147 39.5659C124.345 40.8979 124.641 41.8846 125.035 42.5259C125.677 43.4632 126.54 44.0306 127.626 44.2279C128.711 44.4252 129.599 44.1786 130.29 43.4879C131.622 42.2546 132.362 40.2812 132.51 37.5679C132.608 35.2492 131.868 33.8186 130.29 33.2759Z" fill="#EE9B00"/>
  <path d="M90.9872 16.922C92.9112 16.8233 93.8979 16.7493 93.9472 16.7C93.9966 16.6506 95.5506 16.626 98.6092 16.626C102.211 16.626 104.554 16.7986 105.639 17.144C106.774 17.44 107.687 18.18 108.377 19.364C108.673 19.956 108.821 21.9293 108.821 25.284C108.871 28.6386 108.723 32.1906 108.377 35.94C108.279 37.716 107.81 39.0233 106.971 39.862C106.182 40.6513 104.924 41.1693 103.197 41.416C102.013 41.5146 101.273 41.6133 100.977 41.712C100.78 41.7613 100.657 41.9586 100.607 42.304C100.607 42.6493 100.607 43.858 100.607 45.93C100.607 48.4953 100.583 50.7646 100.533 52.738C100.484 54.514 100.509 55.476 100.607 55.624C100.706 55.772 101.52 55.8706 103.049 55.92C104.628 55.9693 106.207 55.9446 107.785 55.846C111.239 55.6486 113.335 55.5993 114.075 55.698C114.815 55.7473 115.506 56.0433 116.147 56.586C117.923 58.2633 117.923 59.99 116.147 61.766C115.555 62.358 114.791 62.7033 113.853 62.802C112.916 62.95 109.857 63.0486 104.677 63.098C98.6586 63.246 95.6246 63.32 95.5752 63.32C95.3779 63.468 92.6152 63.5173 87.2872 63.468C81.9592 63.4186 79.1472 63.3446 78.8512 63.246C77.6179 62.7033 76.8532 61.8153 76.5572 60.582C76.2612 59.2993 76.5819 58.2386 77.5192 57.4C78.1112 56.8573 78.7279 56.512 79.3692 56.364C80.0599 56.216 81.4906 56.1666 83.6612 56.216C89.1866 56.2653 92.2206 56.1173 92.7632 55.772C92.9606 55.6733 93.0592 55.402 93.0592 54.958C93.1086 54.4646 93.1086 52.8366 93.0592 50.074C93.0592 46.374 93.0839 44.0306 93.1332 43.044C93.2319 42.156 93.2072 41.638 93.0592 41.49C92.9606 41.2926 92.5906 41.194 91.9492 41.194C87.6079 41.194 85.1166 39.344 84.4752 35.644C84.2779 34.7066 84.1792 32.1906 84.1792 28.096C84.1792 23.952 84.2532 21.584 84.4012 20.992C84.8452 19.4133 85.4866 18.3773 86.3252 17.884C87.1639 17.3413 88.7179 17.0206 90.9872 16.922ZM101.347 24.248C101.101 23.952 99.5219 23.8286 96.6112 23.878C93.7006 23.878 92.0972 24.026 91.8012 24.322C91.7026 24.4206 91.6039 25.58 91.5052 27.8C91.4559 30.02 91.4806 31.574 91.5792 32.462C91.6286 33.0046 91.8506 33.3253 92.2452 33.424C92.6399 33.5226 93.9719 33.6213 96.2412 33.72C98.5599 33.8186 99.9166 33.8433 100.311 33.794C100.706 33.7446 100.977 33.572 101.125 33.276C101.273 32.9306 101.372 31.3766 101.421 28.614C101.471 25.8513 101.446 24.396 101.347 24.248Z" fill="#EE9B00"/>
  <path d="M10.5283 0.508876C10.2397 0.701281 9.99237 1.01737 9.88245 1.36095C9.69008 1.91068 9.70382 1.95191 11.7099 7.40796C12.8229 10.4315 13.771 13.0152 13.7985 13.1389C13.8397 13.2901 13.6336 13.6474 13.2352 14.1009C12.8779 14.4857 12.4245 15.0767 12.2321 15.4065C12.0397 15.7501 11.8336 15.97 11.7786 15.9013C11.7237 15.8463 10.171 13.4137 8.3435 10.5002C6.516 7.58662 4.79842 5.0029 4.53735 4.74178C4.09765 4.32949 4.00147 4.28826 3.42436 4.35697C2.5587 4.45318 2.02282 5.03039 2.02282 5.86873C2.02282 6.40471 2.39382 7.05064 6.0763 12.864C8.30228 16.396 10.1298 19.3096 10.1298 19.3371C10.1298 19.3646 9.78626 19.4608 9.37404 19.557C6.70837 20.1617 4.33124 22.4843 3.60299 25.2054C3.34192 26.1949 3.34192 28.064 3.61673 29.1497L3.83658 30.0155L3.3007 30.6752C1.45945 32.8879 0.511353 35.2654 0.511353 37.6018C0.511353 40.0481 1.55564 44.9269 2.70985 47.7992C4.64727 52.7056 8.21983 57.4057 12.3145 60.4567C13.5649 61.3913 13.5649 61.3913 13.5649 62.0097C13.5649 63.3428 14.3069 64.6347 15.7909 65.8853C21.562 70.7367 32.843 71.6574 40.3729 67.8781C42.1042 66.9985 43.1485 66.2839 44.1378 65.2669C45.1408 64.2499 45.608 63.3428 45.7042 62.2159L45.7866 61.3638L46.9134 60.5255C51.118 57.4057 54.7455 52.5819 56.6967 47.5381C58.2906 43.4014 59.1425 37.8767 58.5654 35.4029C58.1807 33.7812 57.1639 31.8846 55.9822 30.5928L55.4326 30.0155L55.6661 29.2184C55.7898 28.7512 55.886 27.9128 55.886 27.2119C55.886 24.9443 55.2127 23.2814 53.6188 21.6872C52.2447 20.2991 50.9943 19.7081 48.7134 19.3646C48.2325 19.2958 48.205 19.2546 48.1226 18.6362C47.6829 15.2828 45.4157 12.6304 42.2828 11.8058C40.6751 11.3798 38.4079 11.5996 36.9927 12.3143L36.4568 12.6029L36.2507 12.2731C35.7697 11.4897 34.0797 9.99169 33.214 9.56565C30.0537 8.02641 26.6048 8.56239 24.2002 10.9675C23.6643 11.5034 23.1421 12.0944 23.0185 12.2868C22.8261 12.6029 22.7986 12.6166 22.4688 12.3967C22.2902 12.2731 21.7131 12.0394 21.2047 11.8882C20.1742 11.5722 18.1268 11.4897 17.2886 11.7371C17.0276 11.8058 16.7802 11.847 16.7527 11.8195C16.7253 11.7783 15.7909 9.29078 14.6917 6.29476C12.7955 1.15481 12.6443 0.797483 12.2046 0.508876C11.6138 0.110323 11.1191 0.110323 10.5283 0.508876ZM31.1117 12.0944C32.5819 12.5892 33.4751 13.5237 34.1209 15.2004C34.3957 15.915 34.5881 16.2311 34.9178 16.4235C35.6736 16.877 36.4705 16.7121 37.1988 15.9288C38.1469 14.898 40.4141 14.4307 41.8431 14.9667C43.3958 15.5577 44.4263 16.6984 44.8385 18.3201C45.0309 19.076 45.0309 19.3371 44.8798 20.2579C44.7011 21.4123 44.7698 21.9208 45.1683 22.3193C45.5668 22.7179 46.0752 22.8004 47.1607 22.608C49.3455 22.2506 51.3928 23.2401 52.3272 25.1367C52.602 25.7139 52.657 26.0163 52.657 27.1295C52.657 28.2702 52.602 28.545 52.2585 29.3146C51.7363 30.4966 51.805 30.7577 53.0692 32.1045C54.8829 34.0286 55.6112 35.609 55.6112 37.6018C55.6112 39.4984 54.8005 41.1475 52.9318 43.0029C51.5714 44.3772 50.0325 45.4079 47.6416 46.5624C36.814 51.7848 19.5971 51.3312 9.81374 45.5591C7.12058 43.9649 5.2656 42.0958 4.08391 39.7732C3.38314 38.3989 3.67169 35.9663 4.74346 34.1248C5.03201 33.6575 5.73278 32.7642 6.32363 32.132C7.56028 30.7989 7.62899 30.4828 7.01066 29.2872C6.66714 28.6412 6.62592 28.4351 6.62592 27.1982C6.62592 25.9613 6.66714 25.7551 7.01066 25.0955C7.91754 23.3776 9.92367 22.2644 11.655 22.5392C12.2733 22.6492 12.3558 22.7179 13.2901 24.2434C13.6886 24.8893 14.1695 25.5765 14.3619 25.7826C15.5573 27.0745 17.6184 25.5627 16.8077 23.996C16.6978 23.7899 16.0932 22.8141 15.4749 21.8383C14.3894 20.1479 14.3344 20.0105 14.3344 19.2958C14.3481 18.4712 14.7054 17.2069 14.994 16.9595C15.1451 16.8495 15.2138 16.8908 15.3237 17.1931C16.5604 20.6564 17.6184 23.4188 17.7696 23.6662C17.8932 23.8448 18.2093 24.0785 18.4841 24.2022C19.4734 24.6145 20.5726 23.8861 20.5726 22.8004C20.5726 22.5667 19.9543 20.6839 19.1986 18.6224C18.4428 16.5747 17.8245 14.843 17.8245 14.8018C17.8245 14.7606 18.4016 14.7606 19.1024 14.7881C20.5314 14.8568 21.1772 15.1042 22.2078 16.025C22.8948 16.6297 23.2521 16.7533 23.9253 16.6297C24.4337 16.5335 25.107 15.8738 25.107 15.4752C25.1208 15.1042 25.6154 14.1009 26.0826 13.5099C26.5223 12.9465 27.388 12.3693 28.2399 12.0669C28.9407 11.8195 30.3285 11.8333 31.1117 12.0944ZM6.72211 47.3869C10.858 50.2455 16.3543 52.1146 23.3895 53.0491C25.5742 53.3378 31.1941 53.4477 33.6949 53.2553C41.1561 52.6643 47.9714 50.5754 52.3821 47.5519C52.9867 47.1396 53.4951 46.8235 53.5226 46.8372C53.6051 46.9334 52.4508 49.2835 51.7638 50.4242C49.1119 54.8083 45.292 58.354 40.84 60.5255C36.869 62.477 33.1865 63.2604 28.7483 63.0954C25.5467 62.9717 23.0322 62.4495 20.1604 61.2951C16.9314 60.0032 14.3344 58.2716 11.6962 55.6466C9.88245 53.8325 8.8519 52.5681 7.79387 50.8365C6.90073 49.3935 5.62286 46.7822 5.80149 46.7822C5.82897 46.7822 6.24119 47.0571 6.72211 47.3869ZM20.7513 64.9233C22.2765 65.4318 24.6399 65.954 26.3849 66.1739C28.5147 66.435 32.8705 66.2564 35.0003 65.8441C36.4568 65.5555 38.5453 64.9783 39.6034 64.5797C39.7545 64.5247 39.6996 64.6072 39.466 64.7721C38.8476 65.2119 36.4705 66.0915 35.069 66.4075C33.2003 66.8336 31.7163 66.9985 29.7239 66.9985C27.4842 66.9985 25.7528 66.7924 23.8017 66.2976C22.3727 65.9403 19.8719 64.9645 19.5558 64.6484C19.3635 64.456 19.3909 64.456 20.7513 64.9233Z" fill="#EEF5FF"/>
  <path d="M31.1117 12.0944C32.5819 12.5892 33.4751 13.5237 34.1209 15.2004C34.3957 15.915 34.5881 16.2311 34.9178 16.4235C35.6736 16.877 36.4705 16.7121 37.1988 15.9288C38.1469 14.898 40.4141 14.4307 41.8431 14.9667C43.3958 15.5577 44.4263 16.6984 44.8385 18.3201C45.0309 19.076 45.0309 19.3371 44.8798 20.2579C44.7011 21.4123 44.7698 21.9208 45.1683 22.3193C45.5668 22.7179 46.0752 22.8004 47.1607 22.608C49.3455 22.2506 51.3928 23.2401 52.3272 25.1367C52.602 25.7139 52.657 26.0163 52.657 27.1295C52.657 28.2702 52.602 28.545 52.2585 29.3146C51.7363 30.4966 51.805 30.7577 53.0692 32.1045C54.8829 34.0286 55.6112 35.609 55.6112 37.6018C55.6112 39.4984 54.8005 41.1475 52.9318 43.0029C51.5714 44.3772 50.0325 45.4079 47.6416 46.5624C36.814 51.7848 19.5971 51.3312 9.81374 45.5591C7.12058 43.9649 5.2656 42.0958 4.08391 39.7732C3.38314 38.3989 3.67169 35.9663 4.74346 34.1248C5.03201 33.6575 5.73278 32.7642 6.32363 32.132C7.56028 30.7989 7.62899 30.4828 7.01066 29.2872C6.66714 28.6412 6.62592 28.4351 6.62592 27.1982C6.62592 25.9613 6.66714 25.7551 7.01066 25.0955C7.91754 23.3776 9.92367 22.2644 11.655 22.5392C12.2733 22.6492 12.3558 22.7179 13.2901 24.2434C13.6886 24.8893 14.1695 25.5765 14.3619 25.7826C15.5573 27.0745 17.6184 25.5627 16.8077 23.996C16.6978 23.7899 16.0932 22.8141 15.4749 21.8383C14.3894 20.1479 14.3344 20.0105 14.3344 19.2958C14.3481 18.4712 14.7054 17.2069 14.994 16.9595C15.1451 16.8495 15.2138 16.8908 15.3237 17.1931C16.5604 20.6564 17.6184 23.4188 17.7696 23.6662C17.8932 23.8448 18.2093 24.0785 18.4841 24.2022C19.4734 24.6145 20.5726 23.8861 20.5726 22.8004C20.5726 22.5667 19.9543 20.6839 19.1986 18.6224C18.4428 16.5747 17.8245 14.843 17.8245 14.8018C17.8245 14.7606 18.4016 14.7606 19.1024 14.7881C20.5314 14.8568 21.1772 15.1042 22.2078 16.025C22.8948 16.6297 23.2521 16.7533 23.9253 16.6297C24.4337 16.5335 25.107 15.8738 25.107 15.4752C25.1208 15.1042 25.6154 14.1009 26.0826 13.5099C26.5223 12.9465 27.388 12.3693 28.2399 12.0669C28.9407 11.8195 30.3285 11.8333 31.1117 12.0944Z" fill="#332941"/>
  <path d="M6.72211 47.3869C10.858 50.2455 16.3543 52.1146 23.3895 53.0491C25.5742 53.3378 31.1941 53.4477 33.6949 53.2553C41.1561 52.6643 47.9714 50.5754 52.3821 47.5519C52.9867 47.1396 53.4951 46.8235 53.5226 46.8372C53.6051 46.9334 52.4508 49.2835 51.7638 50.4242C49.1119 54.8083 45.292 58.354 40.84 60.5255C36.869 62.477 33.1865 63.2604 28.7483 63.0954C25.5467 62.9717 23.0322 62.4495 20.1604 61.2951C16.9314 60.0032 14.3344 58.2716 11.6962 55.6466C9.88245 53.8325 8.8519 52.5681 7.79387 50.8365C6.90073 49.3935 5.62286 46.7822 5.80149 46.7822C5.82897 46.7822 6.24119 47.0571 6.72211 47.3869Z" fill="#332941"/>
  <path d="M19.3634 35.8701C18.484 36.4748 18.7039 37.3132 20.0642 38.6325C21.8092 40.3092 23.8978 41.5048 26.2062 42.137C27.1956 42.3982 27.704 42.4531 29.6414 42.4531C31.5788 42.4531 32.0735 42.4119 33.0765 42.137C35.4537 41.4911 37.817 40.0893 39.6033 38.2752C40.3316 37.5193 40.4278 37.3681 40.4278 36.8734C40.4278 36.1587 39.9056 35.6502 39.1911 35.6502C38.7926 35.6502 38.559 35.8014 37.6934 36.6672C33.8872 40.4191 28.4047 41.12 23.8291 38.4264C23.3894 38.1652 22.4688 37.4369 21.7955 36.8047C20.7787 35.8289 20.5176 35.6502 20.1329 35.6502C19.8718 35.6502 19.5283 35.7464 19.3634 35.8701Z" fill="#EF233C"/>
  <path d="M15.8545 30.6168C15.1953 31.2846 15.0488 32.0452 15.4334 32.8243C16.0377 34.0115 17.5576 34.2526 18.5647 33.3437C19.0775 32.8799 19.169 32.6759 19.169 31.9339C19.169 31.1919 19.0775 30.9878 18.5647 30.5241C17.7041 29.7264 16.6969 29.7635 15.8545 30.6168Z" fill="#EE9B00"/>
  <path d="M40.7299 30.6168C40.0707 31.2846 39.9242 32.0452 40.3087 32.8243C40.913 34.0115 42.4329 34.2526 43.4401 33.3437C43.9528 32.8799 44.0444 32.6759 44.0444 31.9339C44.0444 31.1919 43.9528 30.9878 43.4401 30.5241C42.5794 29.7264 41.5723 29.7635 40.7299 30.6168Z" fill="#EE9B00"/>
</svg>
